<svg xmlns="http://www.w3.org/2000/svg" version="1.1" xmlns:xlink="http://www.w3.org/1999/xlink" xmlns:svgjs="http://svgjs.dev/svgjs" width="1500" height="1500" viewBox="0 0 1500 1500"><rect width="1500" height="1500" fill="#000000"></rect><g transform="matrix(0.6666666666666666,0,0,0.6666666666666666,250.16013772090696,273.7192982456141)"><svg viewBox="0 0 259 247" data-background-color="#7c4e29" preserveAspectRatio="xMidYMid meet" height="1430" width="1500" xmlns="http://www.w3.org/2000/svg" xmlns:xlink="http://www.w3.org/1999/xlink"><g id="tight-bounds" transform="matrix(1,0,0,1,-0.04147566971491301,-0.09999999999999432)"><svg viewBox="0 0 259.0829513394298 247.2" height="247.2" width="259.0829513394298"><g><svg viewBox="0 0 395.52 377.3793045606702" height="247.2" width="259.0829513394298"><g transform="matrix(1,0,0,1,0,259.56220090489336)"><svg viewBox="0 0 395.52 117.81710365577688" height="117.81710365577688" width="395.52"><g id="textblocktransform"><svg viewBox="0 0 395.52 117.81710365577688" height="117.81710365577688" width="395.52" id="textblock"><g><rect width="109.22310477932221" height="5.730546102171072" y="95.31645156433106" fill="#ffffff" data-fill-palette-color="tertiary"></rect><rect width="109.22310477932221" height="5.730546102171072" y="95.31645156433106" x="286.29689522067775" fill="#ffffff" data-fill-palette-color="tertiary"></rect></g><g><svg viewBox="0 0 395.52 63.54491598822102" height="63.54491598822102" width="395.52"><g transform="matrix(1,0,0,1,0,0)"><svg width="395.52" viewBox="2.42 -35.23 281.85999999999996 45.29" height="63.54491598822102" data-palette-color="#ffffff"><path d="M9.03-35.23L9.03-35.23Q10.16-35.23 10.99-34.45L10.99-34.45Q11.79-33.59 11.79-32.45L11.79-32.45Q11.79-31.27 10.99-30.47L10.99-30.47Q10.16-29.64 9.03-29.64L9.03-29.64Q7.86-29.64 7.03-30.47L7.03-30.47Q6.2-31.25 6.2-32.45L6.2-32.45Q6.2-33.62 7.03-34.45L7.03-34.45Q7.86-35.23 9.03-35.23ZM6.91-3.2L6.91-25.39 11.11-25.39 11.11-3.52Q11.11 0.95 10.21 3.27L10.21 3.27Q9.35 5.49 6.62 8.52L6.62 8.52 5.22 10.06 2.42 7.74Q4.42 5.32 5.08 4.2L5.08 4.2Q5.1 4.15 5.64 3.15L5.64 3.15Q6.91 0.51 6.91-3.2L6.91-3.2ZM29.66-25.95L29.66-25.95Q30.86-25.95 32.15-25.77 33.44-25.59 34.69-25.07L34.69-25.07Q35.94-24.54 37.05-23.62 38.16-22.71 39.01-21.24L39.01-21.24Q39.87-19.75 40.35-17.66 40.84-15.58 40.84-12.7L40.84-12.7Q40.84-9.81 40.35-7.73 39.87-5.64 39.01-4.17L39.01-4.17Q38.16-2.69 37.05-1.76 35.94-0.83 34.69-0.32L34.69-0.32Q33.44 0.22 32.15 0.4 30.86 0.59 29.66 0.59L29.66 0.59Q28.49 0.59 27.21 0.4 25.93 0.22 24.68-0.32L24.68-0.32Q23.43-0.83 22.34-1.76 21.24-2.69 20.38-4.17L20.38-4.17Q19.53-5.64 19.04-7.73 18.55-9.81 18.55-12.7L18.55-12.7Q18.55-15.58 19.04-17.66 19.53-19.75 20.38-21.24L20.38-21.24Q21.24-22.71 22.34-23.62 23.43-24.54 24.68-25.07L24.68-25.07Q25.93-25.59 27.19-25.77 28.46-25.95 29.66-25.95ZM29.66-22.51L29.66-22.51Q28.27-22.51 27.04-22.07 25.8-21.63 24.88-20.53L24.88-20.53Q23.92-19.41 23.36-17.53 22.8-15.65 22.8-12.7L22.8-12.7Q22.8-9.77 23.36-7.87 23.92-5.98 24.88-4.88L24.88-4.88Q25.8-3.76 27.04-3.33 28.27-2.91 29.66-2.91L29.66-2.91Q31.08-2.91 32.33-3.33 33.59-3.76 34.54-4.88L34.54-4.88Q35.5-5.98 36.04-7.87 36.59-9.77 36.59-12.7L36.59-12.7Q36.59-15.65 36.04-17.53 35.5-19.41 34.54-20.53L34.54-20.53Q33.59-21.63 32.33-22.07 31.08-22.51 29.66-22.51ZM47.55 0L47.55-35.16 51.75-35.16 51.75-19.85Q53.39-22.63 55.46-24.19L55.46-24.19Q57.83-25.95 60.18-25.95L60.18-25.95Q63.69-25.95 65.64-24.19L65.64-24.19Q67.33-22.68 67.96-19.63L67.96-19.63Q68.45-17.31 68.45-13.38L68.45-13.38 68.45 0 64.25 0 64.25-14.55Q64.25-16.04 64.18-17 64.11-17.97 63.83-19.03 63.54-20.09 63.02-20.69 62.5-21.29 61.56-21.68 60.62-22.07 59.27-22.07L59.27-22.07Q56.95-22.07 54.8-19.87L54.8-19.87Q53.44-18.48 51.75-15.63L51.75-15.63 51.75 0 47.55 0ZM74.87-24.95L74.87-24.95 78.92-25.85Q79.39-24.39 79.58-23.02L79.58-23.02Q79.68-22.36 79.83-20.41L79.83-20.41 80.34-20.41Q81.68-22.88 83.66-24.34L83.66-24.34Q85.83-25.95 88.25-25.95L88.25-25.95Q91.89-25.95 93.79-24.19L93.79-24.19Q95.43-22.71 96.06-19.63L96.06-19.63Q96.48-17.53 96.48-13.38L96.48-13.38 96.48 0 92.28 0 92.28-14.55Q92.28-18.19 91.57-19.75L91.57-19.75Q90.52-22.07 87.35-22.07L87.35-22.07Q85.1-22.07 82.95-19.92L82.95-19.92Q81.51-18.48 79.88-15.7L79.88-15.7 79.88 0 75.68 0 75.68-15.63Q75.68-18.92 75.51-21.31L75.51-21.31Q75.41-22.8 74.87-24.95ZM140.88 0L140.88 0 135.29 0 132.24-11.79 127.33 0 121.81 0 115.32-25.42 119.52-25.42 124.87-3.05 130.77-17.7 128.8-25.42 133-25.42 138.49-3.05Q141.13-9.16 142.18-12.23L142.18-12.23Q143.44-15.97 143.44-18.65L143.44-18.65Q143.44-21 142.3-24.98L142.3-24.98Q144.52-25.54 146.33-25.88L146.33-25.88Q147.35-23.36 147.62-20.46L147.62-20.46Q147.69-19.73 147.69-18.97L147.69-18.97Q147.69-14.97 145.45-9.64L145.45-9.64Q144.84-8.23 144.07-6.6 143.3-4.98 142.26-2.84 141.22-0.71 140.88 0ZM155.72-20.9L155.72-20.9 154.65-24.32Q158.75-25.95 163.24-25.95L163.24-25.95Q167.17-25.95 169.25-24.63L169.25-24.63Q171.62-23.12 171.62-19.48L171.62-19.48 171.62-9.5Q171.62-7.5 171.66-5.4L171.66-5.4Q171.69-4.15 171.91-2.81L171.91-2.81Q172.1-1.54 172.42-0.39L172.42-0.39 168.42 0.49Q167.86-1.15 167.71-3.17L167.71-3.17 167.22-3.22Q164.19 0.59 159.51 0.59L159.51 0.59Q156.09 0.59 154.01-1.31 151.94-3.2 151.94-6.64L151.94-6.64Q151.94-9.2 153.07-10.84 154.21-12.48 156.28-13.6L156.28-13.6Q159.56-15.38 165.44-15.38L165.44-15.38Q166.22-15.38 167.54-15.33L167.54-15.33 167.54-19.04Q167.54-20.8 166.46-21.58 165.39-22.36 163.1-22.36L163.1-22.36Q159.75-22.36 155.72-20.9ZM167.54-7.13L167.54-7.13 167.54-12.26Q166.88-12.3 165.61-12.3L165.61-12.3Q163.46-12.3 161.65-11.94L161.65-11.94Q158.97-11.4 157.49-10.24 156.02-9.08 156.02-6.91L156.02-6.91Q156.02-3 160.26-3L160.26-3Q162.46-3 164.36-4.17L164.36-4.17Q165.93-5.15 167.54-7.13ZM202.69 0L202.69 0 197.1 0 194.05-11.79 189.14 0 183.63 0 177.13-25.42 181.33-25.42 186.68-3.05 192.59-17.7 190.61-25.42 194.81-25.42 200.3-3.05Q202.94-9.16 203.99-12.23L203.99-12.23Q205.26-15.97 205.26-18.65L205.26-18.65Q205.26-21 204.11-24.98L204.11-24.98Q206.33-25.54 208.14-25.88L208.14-25.88Q209.16-23.36 209.43-20.46L209.43-20.46Q209.5-19.73 209.5-18.97L209.5-18.97Q209.5-14.97 207.26-9.64L207.26-9.64Q206.65-8.23 205.88-6.6 205.11-4.98 204.07-2.84 203.03-0.71 202.69 0ZM233.82-4.71L235.04-1.42Q232.33-0.34 229.95 0.12 227.57 0.59 225.69 0.59L225.69 0.59Q222.81 0.59 220.66-0.33 218.51-1.25 217.08-2.91 215.65-4.57 214.93-6.87 214.21-9.18 214.21-11.96L214.21-11.96Q214.21-13.67 214.46-15.38 214.7-17.09 215.24-18.64 215.78-20.19 216.64-21.53 217.51-22.88 218.75-23.85 220-24.83 221.66-25.39 223.32-25.95 225.44-25.95L225.44-25.95Q230.89-25.95 233.65-22.55 236.41-19.14 236.41-12.79L236.41-12.79 236.41-11.45 218.53-11.45Q218.53-9.4 218.97-7.82 219.41-6.25 220.33-5.16 221.24-4.08 222.65-3.52 224.05-2.95 225.98-2.95L225.98-2.95Q227.06-2.95 228.12-3.11 229.18-3.27 230.18-3.53 231.18-3.78 232.1-4.1 233.01-4.42 233.82-4.71L233.82-4.71ZM218.66-14.82L232.18-14.82Q231.99-18.77 230.29-20.59 228.59-22.41 225.44-22.41L225.44-22.41Q222.29-22.41 220.65-20.59 219-18.77 218.66-14.82L218.66-14.82ZM247.29-19.51L247.51-19.51Q248.27-21.02 249.14-22.24 250-23.46 251.05-24.32L251.05-24.32Q252-25.15 253.15-25.55 254.3-25.95 255.76-25.95L255.76-25.95Q256.25-25.95 256.9-25.9 257.55-25.85 258.13-25.73L258.13-25.73Q258.03-24.51 257.9-23.44 257.77-22.36 257.55-21.26L257.55-21.26Q256.33-21.48 255.31-21.58 254.3-21.68 253.4-21.53L253.4-21.53Q252.32-21.34 251.53-20.81 250.73-20.29 250.06-19.42 249.39-18.55 248.76-17.35 248.12-16.14 247.37-14.58L247.37-14.58 247.37 0 243.17 0 243.17-15.65Q243.17-17.19 243.13-18.36 243.09-19.53 242.98-20.59 242.87-21.66 242.65-22.69 242.43-23.73 242.07-25L242.07-25Q243.09-25.27 244.08-25.49 245.07-25.71 246.1-25.9L246.1-25.9Q246.44-24.93 246.64-24.17 246.85-23.41 246.97-22.69 247.1-21.97 247.16-21.23 247.22-20.48 247.29-19.51L247.29-19.51ZM284.28-0.44L284.28-0.44 280.22 0.46Q279.76-1 279.56-2.37L279.56-2.37Q279.47-3 279.32-4.96L279.32-4.96 278.81-4.96Q277.47-2.49 275.49-1.03L275.49-1.03Q273.31 0.59 270.9 0.59L270.9 0.59Q267.26 0.59 265.36-1.17L265.36-1.17Q263.72-2.66 263.09-5.74L263.09-5.74Q262.67-7.84 262.67-11.99L262.67-11.99 262.67-25.39 266.87-25.39 266.87-10.82Q266.87-7.18 267.58-5.62L267.58-5.62Q268.63-3.3 271.8-3.3L271.8-3.3Q274.05-3.3 276.2-5.44L276.2-5.44Q277.64-6.88 279.27-9.67L279.27-9.67 279.27-25.39 283.47-25.39 283.47-9.72Q283.47-6.47 283.64-4.08L283.64-4.08Q283.74-2.59 284.28-0.44Z" opacity="1" transform="matrix(1,0,0,1,0,0)" fill="#ffffff" class="wordmark-text-0" data-fill-palette-color="primary" id="text-0"></path></svg></g></svg></g><g transform="matrix(1,0,0,1,109.22310477932221,78.54634557505629)"><svg viewBox="0 0 177.07379044135556 39.27075808072059" height="39.27075808072059" width="177.07379044135556"><g transform="matrix(1,0,0,1,8,0)"><svg width="161.07379044135556" viewBox="1.5 -33 189.68 46.25" height="39.27075808072059" data-palette-color="#ffffff"><path d="M17.5-33L17.5-33 18.15-31.05 13.6-29.85Q13.6-25.6 13.58-22.35 13.55-19.1 13.55-16.23 13.55-13.35 13.55-10.2 13.55-7.05 13.6-2.95L13.6-2.95 18.15-1.9 17.5 0Q14.8-0.15 9.9-0.15L9.9-0.15Q7.6-0.15 5.65-0.1 3.7-0.05 2.15 0L2.15 0 1.5-1.9 6.1-2.95Q6.2-7 6.28-10.15 6.35-13.3 6.35-16.18 6.35-19.05 6.3-22.33 6.25-25.6 6.1-29.85L6.1-29.85 1.5-31.05 2.15-33Q4.1-32.9 5.95-32.85 7.8-32.8 10.1-32.8L10.1-32.8Q12.15-32.8 14.15-32.88 16.15-32.95 17.5-33ZM36.64-9.15L36.64-9.15 39.05-8.55Q37.89-6.55 37.89-5.55L37.89-5.55Q37.89-4.2 39.34-3.9 40.8-3.6 42.8-3.5L42.8-3.5Q44.34-3.4 46-3.18 47.64-2.95 49.07-2.27 50.5-1.6 51.37-0.18 52.25 1.25 52.25 3.75L52.25 3.75Q52.25 6.2 50.92 8.38 49.59 10.55 46.84 11.9 44.09 13.25 39.89 13.25L39.89 13.25Q36.7 13.25 34.55 12.3 32.39 11.35 31.29 9.8 30.2 8.25 30.2 6.5L30.2 6.5Q30.2 4.3 31.87 2.23 33.55 0.15 36.95-1L36.95-1 37.89-0.45Q36.89 0.75 36.42 1.95 35.95 3.15 35.95 4.3L35.95 4.3Q35.95 6.55 37.77 8.1 39.59 9.65 42.84 9.65L42.84 9.65Q44.95 9.65 46.59 8.68 48.25 7.7 48.25 5.5L48.25 5.5Q48.25 3.9 46.37 3.08 44.5 2.25 39.8 2.25L39.8 2.25Q36.55 2.25 34.45 1 32.34-0.25 32.34-3.15L32.34-3.15Q33.89-5.15 34.8-6.45 35.7-7.75 36.64-9.15ZM39.3-19.45L39.3-19.45Q38.3-18.75 37.92-17.3 37.55-15.85 37.55-14.65L37.55-14.65Q37.55-13.35 38.14-11.95 38.74-10.55 39.8-9.6 40.84-8.65 42.25-8.65L42.25-8.65Q43.09-9.05 43.62-10.4 44.14-11.75 44.14-13.45L44.14-13.45Q44.14-14.75 43.45-16.13 42.75-17.5 41.64-18.48 40.55-19.45 39.3-19.45ZM40.64-21.55L40.64-21.55Q44.09-21.55 46.22-20.48 48.34-19.4 49.34-17.68 50.34-15.95 50.34-14L50.34-14Q50.34-11.9 49.25-10.13 48.14-8.35 45.95-7.28 43.75-6.2 40.45-6.2L40.45-6.2Q37.55-6.2 35.47-7.23 33.39-8.25 32.3-9.95 31.2-11.65 31.2-13.7L31.2-13.7Q31.2-15.8 32.27-17.57 33.34-19.35 35.45-20.45 37.55-21.55 40.64-21.55ZM55.3-21.15L55.3-21.15Q55.3-19.9 55.25-18.43 55.2-16.95 55.2-16.25L55.2-16.25Q52.75-17.3 50.92-17.85 49.09-18.4 47.34-18.6L47.34-18.6 45-20.5Q46.59-20.7 48.7-20.85 50.8-21 52.62-21.08 54.45-21.15 55.3-21.15ZM67.09-21.7L67.09-21.7Q70.79-21.7 73.27-20.15 75.74-18.6 76.97-16.1 78.19-13.6 78.19-10.7L78.19-10.7Q78.19-7.75 76.94-5.18 75.69-2.6 73.19-1.05 70.69 0.5 66.94 0.5L66.94 0.5Q63.19 0.5 60.64-1.07 58.09-2.65 56.79-5.25 55.49-7.85 55.49-10.8L55.49-10.8Q55.49-13.7 56.77-16.18 58.04-18.65 60.62-20.18 63.19-21.7 67.09-21.7ZM62.49-11.85L62.49-11.85Q62.49-9.35 63.07-7.1 63.64-4.85 64.79-3.45 65.94-2.05 67.54-2.05L67.54-2.05Q69.44-2.05 70.37-4.13 71.29-6.2 71.29-9.3L71.29-9.3Q71.29-11.8 70.72-14.03 70.14-16.25 69.02-17.68 67.89-19.1 66.24-19.1L66.24-19.1Q64.34-19.1 63.42-17.03 62.49-14.95 62.49-11.85ZM89.44-27.6L89.44-27.6Q89.34-25.85 89.29-23.53 89.24-21.2 89.22-18.73 89.19-16.25 89.22-14 89.24-11.75 89.27-10.1 89.29-8.45 89.34-7.8L89.34-7.8Q89.44-5.95 89.99-5.2 90.54-4.45 91.74-4.45L91.74-4.45Q92.59-4.45 93.54-4.75 94.49-5.05 96.04-6L96.04-6 97.04-4Q95.79-2.95 94.37-1.9 92.94-0.85 91.27-0.18 89.59 0.5 87.54 0.5L87.54 0.5Q86.39 0.5 85.29 0.03 84.19-0.45 83.52-1.63 82.84-2.8 82.84-4.8L82.84-4.8Q82.84-4.75 82.87-5.7 82.89-6.65 82.92-8.22 82.94-9.8 82.99-11.55 83.04-13.3 83.07-14.85 83.09-16.4 83.12-17.38 83.14-18.35 83.14-18.25L83.14-18.25Q83.09-18.8 82.52-19.2 81.94-19.6 81.19-19.9 80.44-20.2 79.84-20.45 79.24-20.7 79.19-21L79.19-21Q80.39-21.2 81.24-21.4 82.09-21.6 83.09-21.85L83.09-21.85Q84.19-23.3 85.07-24.58 85.94-25.85 87.09-27.6L87.09-27.6Q87.54-27.6 88.24-27.6 88.94-27.6 89.44-27.6ZM79.19-21L96.34-21.05 96.34-17.4 79.19-18.4 79.19-21ZM135.29-21.05L135.29-21.05 136.04-19.15 132.19-18.2Q128.84-10.95 125.66-4.03 122.49 2.9 120.49 9.5L120.49 9.5 125.09 11.05 124.29 13Q123.09 12.9 121.34 12.85 119.59 12.8 117.79 12.8L117.79 12.8Q116.59 12.8 115.06 12.83 113.54 12.85 112.19 12.9 110.84 12.95 110.04 13L110.04 13 109.24 11 115.09 9.4Q116.49 7.4 118.21 4.2 119.94 1 121.74-2.83 123.54-6.65 125.11-10.63 126.69-14.6 127.79-18.2L127.79-18.2 123.89-19.15 124.59-21.05Q126.14-21 127.36-20.98 128.59-20.95 129.89-20.95L129.89-20.95Q131.24-20.95 132.59-20.98 133.94-21 135.29-21.05ZM120.94-21L120.94-21 121.84-19.1 118.24-18.1Q118.84-16.25 119.34-14.85 119.84-13.45 120.36-12.18 120.89-10.9 121.61-9.35 122.34-7.8 123.39-5.65L123.39-5.65Q123.49-5.15 123.14-3.98 122.79-2.8 122.21-1.53 121.64-0.25 121.01 0.65 120.39 1.55 119.99 1.55L119.99 1.55Q118.59-1.55 117.44-4 116.29-6.45 115.24-8.68 114.19-10.9 113.04-13.15 111.89-15.4 110.54-18.1L110.54-18.1 106.74-19.1 107.44-21Q108.94-20.95 110.46-20.9 111.99-20.85 113.94-20.85L113.94-20.85Q116.04-20.85 117.84-20.9 119.64-20.95 120.94-21ZM148.88-21.7L148.88-21.7Q152.58-21.7 155.06-20.15 157.53-18.6 158.76-16.1 159.98-13.6 159.98-10.7L159.98-10.7Q159.98-7.75 158.73-5.18 157.48-2.6 154.98-1.05 152.48 0.5 148.73 0.5L148.73 0.5Q144.98 0.5 142.43-1.07 139.88-2.65 138.58-5.25 137.28-7.85 137.28-10.8L137.28-10.8Q137.28-13.7 138.56-16.18 139.83-18.65 142.41-20.18 144.98-21.7 148.88-21.7ZM144.28-11.85L144.28-11.85Q144.28-9.35 144.86-7.1 145.43-4.85 146.58-3.45 147.73-2.05 149.33-2.05L149.33-2.05Q151.23-2.05 152.16-4.13 153.08-6.2 153.08-9.3L153.08-9.3Q153.08-11.8 152.51-14.03 151.93-16.25 150.81-17.68 149.68-19.1 148.03-19.1L148.03-19.1Q146.13-19.1 145.21-17.03 144.28-14.95 144.28-11.85ZM172.73 0.85L172.73 0.85Q169.58 0.85 167.81-1.3 166.03-3.45 165.78-7.55L165.78-7.55Q165.68-9.3 165.68-11.88 165.68-14.45 165.73-18.35L165.73-18.35 162.18-18.9 161.58-20.95Q164.48-20.95 167.31-21.15 170.13-21.35 172.58-21.7L172.58-21.7Q172.48-19.4 172.36-17.48 172.23-15.55 172.23-13.58 172.23-11.6 172.38-9L172.38-9Q172.53-6.1 173.73-5 174.93-3.9 176.08-3.9L176.08-3.9Q177.28-4.15 178.33-5.53 179.38-6.9 180.03-8.88 180.68-10.85 180.68-12.8L180.68-12.8 181.98-8.55Q181.68-6.1 180.43-3.95 179.18-1.8 177.21-0.48 175.23 0.85 172.73 0.85ZM181.08 0L181.08 0Q181.03-1.5 180.91-3.2 180.78-4.9 180.73-7.25L180.73-7.25 180.43-18.3 176.83-18.9 176.23-20.95Q179.18-20.95 181.93-21.15 184.68-21.35 187.18-21.7L187.18-21.7Q187.18-21.7 187.16-20.55 187.13-19.4 187.11-17.7 187.08-16 187.03-14.33 186.98-12.65 186.96-11.5 186.93-10.35 186.93-10.35L186.93-10.35Q186.98-8.65 187.11-7.13 187.23-5.6 187.43-2.9L187.43-2.9 191.18-1.85 190.23 0Q188.93-0.1 187.81-0.1 186.68-0.1 184.93-0.1L184.93-0.1Q184.18-0.1 182.98-0.05 181.78 0 181.08 0Z" opacity="1" transform="matrix(1,0,0,1,0,0)" fill="#ffffff" class="slogan-text-1" data-fill-palette-color="secondary" id="text-1"></path></svg></g></svg></g></svg></g></svg></g><g transform="matrix(1,0,0,1,82.98032913438857,0)"><svg viewBox="0 0 229.55934173122284 229.55934173122284" height="229.55934173122284" width="229.55934173122284"><g><svg></svg></g><g id="icon-0"><svg viewBox="0 0 229.55934173122284 229.55934173122284" height="229.55934173122284" width="229.55934173122284"><g><path d="M0 114.78c0-63.391 51.389-114.78 114.78-114.78 63.391 0 114.78 51.389 114.779 114.78 0 63.391-51.389 114.78-114.779 114.779-63.391 0-114.78-51.389-114.78-114.779zM114.78 223.829c60.226 0 109.049-48.823 109.049-109.049 0-60.226-48.823-109.049-109.049-109.049-60.226 0-109.049 48.823-109.049 109.049 0 60.226 48.823 109.049 109.049 109.049z" data-fill-palette-color="tertiary" fill="#ffffff" stroke="transparent"></path></g><g transform="matrix(1,0,0,1,56.48265866724174,46.3122488724574)"><svg viewBox="0 0 116.59402439673936 136.93484398630804" height="136.93484398630804" width="116.59402439673936"><g><svg xmlns="http://www.w3.org/2000/svg" xmlns:xlink="http://www.w3.org/1999/xlink" version="1.1" x="0" y="0" viewBox="9.787 2.771 80.42599999999999 94.457" enable-background="new 0 0 100 100" xml:space="preserve" height="136.93484398630804" width="116.59402439673936" class="icon-cg-0" data-fill-palette-color="accent" id="cg-0"><path d="M71.896 89.605C82.918 81.183 90.213 66.596 90.213 50c0-16.592-7.291-31.175-18.308-39.599l3.745-7.589h-24.27C50.922 2.794 50.463 2.771 50 2.771s-0.921 0.023-1.381 0.041H24.35l3.745 7.589C17.078 18.825 9.787 33.408 9.787 50c0 16.597 7.295 31.183 18.317 39.605l-3.754 7.607h25.124c0.176 0.003 0.35 0.016 0.526 0.016s0.35-0.013 0.526-0.016H75.65L71.896 89.605zM85.838 50c0 14.821-6.325 27.907-15.916 35.605L53.429 52.188h20.792v-4.375H53.441l16.489-33.41C79.517 22.102 85.838 35.184 85.838 50zM50 7.298c3.262 0 5.904 2.644 5.904 5.905 0 3.261-2.643 5.906-5.904 5.906-3.262 0-5.905-2.645-5.905-5.906C44.095 9.942 46.738 7.298 50 7.298zM55.904 86.822c0 3.262-2.644 5.904-5.904 5.904s-5.905-2.644-5.905-5.904c0-3.262 2.645-5.906 5.905-5.906S55.904 83.561 55.904 86.822zM14.161 50c0-14.816 6.322-27.898 15.909-35.598l16.488 33.41H25.778v4.375h20.793L30.079 85.604C20.487 77.906 14.161 64.82 14.161 50z" fill="#ffffff" data-fill-palette-color="accent"></path></svg></g></svg></g></svg></g></svg></g><g></g></svg></g><defs></defs></svg><rect width="259.0829513394298" height="247.2" fill="none" stroke="none" visibility="hidden"></rect></g></svg></g></svg>